<svg width="28" height="28" viewBox="0 0 28 28" fill="none" xmlns="http://www.w3.org/2000/svg">
<path d="M0 10C0 4.47715 4.47715 0 10 0H18C23.5228 0 28 4.47715 28 10V18C28 23.5228 23.5228 28 18 28H10C4.47715 28 0 23.5228 0 18V10Z" fill="#D0A866"/>
<path d="M16.6667 14.6668L20.1487 16.9881C20.1989 17.0215 20.2573 17.0407 20.3175 17.0435C20.3777 17.0464 20.4376 17.0329 20.4907 17.0045C20.5439 16.976 20.5883 16.9337 20.6193 16.8819C20.6503 16.8302 20.6667 16.7711 20.6667 16.7108V11.2468C20.6668 11.1881 20.6513 11.1305 20.6219 11.0797C20.5926 11.029 20.5503 10.9868 20.4995 10.9576C20.4486 10.9284 20.3909 10.9131 20.3323 10.9133C20.2736 10.9135 20.2161 10.9292 20.1654 10.9588L16.6667 13.0001" stroke="white" stroke-width="1.33333" stroke-linecap="round" stroke-linejoin="round"/>
<path d="M15.3333 10H8.66659C7.93021 10 7.33325 10.597 7.33325 11.3333V16.6667C7.33325 17.403 7.93021 18 8.66659 18H15.3333C16.0696 18 16.6666 17.403 16.6666 16.6667V11.3333C16.6666 10.597 16.0696 10 15.3333 10Z" stroke="white" stroke-width="1.33333" stroke-linecap="round" stroke-linejoin="round"/>
</svg>
