<svg width="28" height="28" viewBox="0 0 28 28" fill="none" xmlns="http://www.w3.org/2000/svg">
<path d="M0 10C0 4.47715 4.47715 0 10 0H18C23.5228 0 28 4.47715 28 10V18C28 23.5228 23.5228 28 18 28H10C4.47715 28 0 23.5228 0 18V10Z" fill="#D0A866"/>
<g clip-path="url(#clip0_92_2104)">
<path d="M15.0001 10.6667C15.1842 10.6667 15.3334 10.5174 15.3334 10.3333C15.3334 10.1492 15.1842 10 15.0001 10C14.816 10 14.6667 10.1492 14.6667 10.3333C14.6667 10.5174 14.816 10.6667 15.0001 10.6667Z" fill="white" stroke="white" stroke-width="1.33333" stroke-linecap="round" stroke-linejoin="round"/>
<path d="M17.6666 13.3334C17.8507 13.3334 17.9999 13.1842 17.9999 13.0001C17.9999 12.816 17.8507 12.6667 17.6666 12.6667C17.4825 12.6667 17.3333 12.816 17.3333 13.0001C17.3333 13.1842 17.4825 13.3334 17.6666 13.3334Z" fill="white" stroke="white" stroke-width="1.33333" stroke-linecap="round" stroke-linejoin="round"/>
<path d="M11.6666 11.3334C11.8507 11.3334 11.9999 11.1842 11.9999 11.0001C11.9999 10.816 11.8507 10.6667 11.6666 10.6667C11.4825 10.6667 11.3333 10.816 11.3333 11.0001C11.3333 11.1842 11.4825 11.3334 11.6666 11.3334Z" fill="white" stroke="white" stroke-width="1.33333" stroke-linecap="round" stroke-linejoin="round"/>
<path d="M10.3333 14.6667C10.5174 14.6667 10.6667 14.5174 10.6667 14.3333C10.6667 14.1492 10.5174 14 10.3333 14C10.1492 14 10 14.1492 10 14.3333C10 14.5174 10.1492 14.6667 10.3333 14.6667Z" fill="white" stroke="white" stroke-width="1.33333" stroke-linecap="round" stroke-linejoin="round"/>
<path d="M13.9999 7.33325C10.3333 7.33325 7.33325 10.3333 7.33325 13.9999C7.33325 17.6666 10.3333 20.6666 13.9999 20.6666C14.6173 20.6666 15.0986 20.1693 15.0986 19.5413C15.0986 19.2499 14.9786 18.9846 14.8073 18.7913C14.6139 18.5986 14.5153 18.3566 14.5153 18.0413C14.5127 17.8945 14.5398 17.7488 14.5947 17.6127C14.6497 17.4767 14.7316 17.3531 14.8353 17.2493C14.9391 17.1456 15.0627 17.0637 15.1987 17.0087C15.3348 16.9538 15.4805 16.9267 15.6273 16.9293H16.9579C18.9919 16.9293 20.6613 15.2606 20.6613 13.2266C20.6433 10.0079 17.6406 7.33325 13.9999 7.33325Z" stroke="white" stroke-width="1.33333" stroke-linecap="round" stroke-linejoin="round"/>
</g>
<defs>
<clipPath id="clip0_92_2104">
<rect width="16" height="16" fill="white" transform="translate(6 6)"/>
</clipPath>
</defs>
</svg>
