<svg width="28" height="28" viewBox="0 0 28 28" fill="none" xmlns="http://www.w3.org/2000/svg">
<path d="M0 10C0 4.47715 4.47715 0 10 0H18C23.5228 0 28 4.47715 28 10V18C28 23.5228 23.5228 28 18 28H10C4.47715 28 0 23.5228 0 18V10Z" fill="#D0A866"/>
<path d="M17.3333 7.33325H10.6666C9.93021 7.33325 9.33325 7.93021 9.33325 8.66659V19.3333C9.33325 20.0696 9.93021 20.6666 10.6666 20.6666H17.3333C18.0696 20.6666 18.6666 20.0696 18.6666 19.3333V8.66659C18.6666 7.93021 18.0696 7.33325 17.3333 7.33325Z" stroke="#F9F8F5" stroke-width="1.33333" stroke-linecap="round" stroke-linejoin="round"/>
<path d="M14 18H14.0067" stroke="#F9F8F5" stroke-width="1.33333" stroke-linecap="round" stroke-linejoin="round"/>
</svg>
