<svg width="28" height="28" viewBox="0 0 28 28" fill="none" xmlns="http://www.w3.org/2000/svg">
<path d="M0 10C0 4.47715 4.47715 0 10 0H18C23.5228 0 28 4.47715 28 10V18C28 23.5228 23.5228 28 18 28H10C4.47715 28 0 23.5228 0 18V10Z" fill="#D0A866"/>
<path d="M16.0001 7.33325H10.0001C9.64646 7.33325 9.30732 7.47373 9.05727 7.72378C8.80722 7.97382 8.66675 8.31296 8.66675 8.66659V19.3333C8.66675 19.6869 8.80722 20.026 9.05727 20.2761C9.30732 20.5261 9.64646 20.6666 10.0001 20.6666H18.0001C18.3537 20.6666 18.6928 20.5261 18.9429 20.2761C19.1929 20.026 19.3334 19.6869 19.3334 19.3333V10.6666L16.0001 7.33325Z" stroke="#F9F8F5" stroke-width="1.33333" stroke-linecap="round" stroke-linejoin="round"/>
<path d="M15.3333 7.33325V9.99992C15.3333 10.3535 15.4737 10.6927 15.7238 10.9427C15.9738 11.1928 16.313 11.3333 16.6666 11.3333H19.3333" stroke="#F9F8F5" stroke-width="1.33333" stroke-linecap="round" stroke-linejoin="round"/>
<path d="M12.6666 12H11.3333" stroke="#F9F8F5" stroke-width="1.33333" stroke-linecap="round" stroke-linejoin="round"/>
<path d="M16.6666 14.6667H11.3333" stroke="#F9F8F5" stroke-width="1.33333" stroke-linecap="round" stroke-linejoin="round"/>
<path d="M16.6666 17.3333H11.3333" stroke="#F9F8F5" stroke-width="1.33333" stroke-linecap="round" stroke-linejoin="round"/>
</svg>
