<svg width="28" height="28" viewBox="0 0 28 28" fill="none" xmlns="http://www.w3.org/2000/svg">
<path d="M0 10C0 4.47715 4.47715 0 10 0H18C23.5228 0 28 4.47715 28 10V18C28 23.5228 23.5228 28 18 28H10C4.47715 28 0 23.5228 0 18V10Z" fill="#D0A866"/>
<path d="M12 18V9.33333L20 8V16.6667" stroke="#F9F8F5" stroke-width="1.33333" stroke-linecap="round" stroke-linejoin="round"/>
<path d="M10 20C11.1046 20 12 19.1046 12 18C12 16.8954 11.1046 16 10 16C8.89543 16 8 16.8954 8 18C8 19.1046 8.89543 20 10 20Z" stroke="#F9F8F5" stroke-width="1.33333" stroke-linecap="round" stroke-linejoin="round"/>
<path d="M18 18.6667C19.1046 18.6667 20 17.7713 20 16.6667C20 15.5622 19.1046 14.6667 18 14.6667C16.8954 14.6667 16 15.5622 16 16.6667C16 17.7713 16.8954 18.6667 18 18.6667Z" stroke="#F9F8F5" stroke-width="1.33333" stroke-linecap="round" stroke-linejoin="round"/>
</svg>
