<svg width="28" height="28" viewBox="0 0 28 28" fill="none" xmlns="http://www.w3.org/2000/svg">
<path d="M0 10C0 4.47715 4.47715 0 10 0H18C23.5228 0 28 4.47715 28 10V18C28 23.5228 23.5228 28 18 28H10C4.47715 28 0 23.5228 0 18V10Z" fill="#D0A866"/>
<path d="M18 11.3333C19.1046 11.3333 20 10.4378 20 9.33325C20 8.22868 19.1046 7.33325 18 7.33325C16.8954 7.33325 16 8.22868 16 9.33325C16 10.4378 16.8954 11.3333 18 11.3333Z" stroke="#F9F8F5" stroke-width="1.33333" stroke-linecap="round" stroke-linejoin="round"/>
<path d="M10 16C11.1046 16 12 15.1046 12 14C12 12.8954 11.1046 12 10 12C8.89543 12 8 12.8954 8 14C8 15.1046 8.89543 16 10 16Z" stroke="#F9F8F5" stroke-width="1.33333" stroke-linecap="round" stroke-linejoin="round"/>
<path d="M18 20.6667C19.1046 20.6667 20 19.7713 20 18.6667C20 17.5622 19.1046 16.6667 18 16.6667C16.8954 16.6667 16 17.5622 16 18.6667C16 19.7713 16.8954 20.6667 18 20.6667Z" stroke="#F9F8F5" stroke-width="1.33333" stroke-linecap="round" stroke-linejoin="round"/>
<path d="M11.7266 15.0066L16.2799 17.6599" stroke="#F9F8F5" stroke-width="1.33333" stroke-linecap="round" stroke-linejoin="round"/>
<path d="M16.2732 10.3401L11.7266 12.9934" stroke="#F9F8F5" stroke-width="1.33333" stroke-linecap="round" stroke-linejoin="round"/>
</svg>
